<svg height="24" viewBox="0 0 24 24" width="24" xmlns="http://www.w3.org/2000/svg"><path fill="currentColor" d="m17.25 10c0-4.00406-3.2459-7.25-7.25-7.25-4.00406 0-7.25 3.24594-7.25 7.25 0 4.0041 3.24594 7.25 7.25 7.25 1.7319 0 3.3219-.6073 4.5688-1.6205l4.9009 4.9008.0841.0726c.2936.2179.7103.1937.9765-.0726.2929-.2929.2929-.7677 0-1.0606l-4.9008-4.9009c1.0132-1.2469 1.6205-2.8369 1.6205-4.5688zm-6.25-3c0 .55228-.4477 1-1 1-.55228 0-1-.44772-1-1s.44772-1 1-1c.5523 0 1 .44772 1 1zm-1 2c.4142 0 .75.33579.75.75v3.5c0 .4142-.3358.75-.75.75-.41421 0-.75-.3358-.75-.75v-3.5c0-.41421.33579-.75.75-.75z" fill="#212121"/></svg>